<?xml version="1.0" encoding="UTF-8"?>
<!DOCTYPE svg PUBLIC "-//W3C//DTD SVG 1.1//EN" "http://www.w3.org/Graphics/SVG/1.1/DTD/svg11.dtd">
<svg version="1.1" xmlns="http://www.w3.org/2000/svg" xmlns:xlink="http://www.w3.org/1999/xlink" x="0" y="0" width="601" height="526" viewBox="0, 0, 601, 526">
  <g id="Layer_1">
    <g>
      <path d="M282.69,295.924 L103.31,255.076" fill-opacity="0" stroke="#656565" stroke-width="4"/>
      <path d="M282.69,295.924 L278.504,299.894 L292.05,298.056 L280.635,290.534 z" fill="#656565" fill-opacity="1" stroke="#656565" stroke-width="4" stroke-opacity="1"/>
      <path d="M103.31,255.076 L107.496,251.106 L93.95,252.944 L105.365,260.466 z" fill="#656565" fill-opacity="1" stroke="#656565" stroke-width="4" stroke-opacity="1"/>
    </g>
    <g>
      <path d="M302,315.5 C293.716,315.5 287,312.366 287,308.5 C287,304.634 293.716,301.5 302,301.5 C310.284,301.5 317,304.634 317,308.5 C317,312.366 310.284,315.5 302,315.5 z" fill-opacity="0" stroke="#A3A3A3" stroke-width="4"/>
      <path d="M287,308.5 C287,411.5 355.028,495.5 411,517.5" fill-opacity="0" stroke="#A3A3A3" stroke-width="4"/>
      <path d="M317,308.5 C317,411.5 396,495.5 461,517.5" fill-opacity="0" stroke="#A3A3A3" stroke-width="4"/>
      <path d="M301,308.5 L301,293.5" fill-opacity="0" stroke="#A3A3A3" stroke-width="4"/>
    </g>
    <path d="M301,9.5 L301,298.5" fill-opacity="0" stroke="#000000" stroke-width="5"/>
    <path d="M301,369.5 C140.009,369.5 9.5,337.041 9.5,297 C9.5,256.959 140.009,224.5 301,224.5 C461.991,224.5 592.5,256.959 592.5,297 C592.5,337.041 461.991,369.5 301,369.5 z" fill-opacity="0" stroke="#000000" stroke-width="5"/>
    <text transform="matrix(1, 0, 0, 1, 384.521, 93)">
      <tspan x="-27.021" y="-40" font-family="Helvetica" font-size="36" fill="#656565">λ</tspan>
      <tspan x="-6.999" y="-40" font-family="Avenir-Medium" font-size="36" fill="#656565">/4 </tspan>
      <tspan x="-72.648" y="9" font-family="Avenir-Medium" font-size="36" fill="#656565">radiating </tspan>
      <tspan x="-66.348" y="58" font-family="Avenir-Medium" font-size="36" fill="#656565">element</tspan>
    </text>
    <text transform="matrix(1, 0, 0, 1, 108.479, 145.5)">
      <tspan x="-27.021" y="-16.5" font-family="Helvetica" font-size="36" fill="#656565">λ</tspan>
      <tspan x="-6.999" y="-16.5" font-family="Avenir-Medium" font-size="36" fill="#656565">/4 </tspan>
      <tspan x="-73.332" y="32.5" font-family="Avenir-Medium" font-size="36" fill="#656565">diameter</tspan>
    </text>
    <g>
      <path d="M109,185.5 C115.552,230.43 200.959,207.895 196.276,258.136" fill-opacity="0" stroke="#656565" stroke-width="4"/>
      <path d="M196.276,258.136 L192.198,254.056 L194.391,267.549 L201.611,255.941 z" fill="#656565" fill-opacity="1" stroke="#656565" stroke-width="4" stroke-opacity="1"/>
    </g>
  </g>
</svg>
